<svg height="512" viewBox="0 0 512 512" width="512" xmlns="http://www.w3.org/2000/svg"><g id="Solid"><path d="m162.146 155.094c.087 11.274.366 22.644.856 33.878l12.658 291.028h41.034l1.455-16h-34.149v-16h35.6l28.4-312.365v-25.271l-44-10.155c-12.821 31.352-31.887 47.922-41.854 54.885z"/><path d="m188.168 96.556-24.409-5.632c-.847 14.456-1.371 28.983-1.566 43.423 8.065-7.602 18.152-19.747 25.975-37.791z"/><path d="m350.681 135.163c-.348-14.778-1.038-29.608-2.066-44.326l-24.783 5.719c8.108 18.698 18.65 31.069 26.849 38.607z"/><path d="m338.839 66.305-74.839 12.472v15.167l83.349-19.235c-.321-3.7-.658-7.349-1.009-10.917a25.456 25.456 0 0 1 -7.5 2.512z"/><path d="m308 100.209-44 10.155v25.184l39.143 344.452h41.029l.348-16h-32.52v-16h32.867l5.855-269.354c.166-7.581.221-15.227.206-22.817-9.612-6.485-29.628-23.095-42.928-55.62z"/><path d="m344 41.324a9.335 9.335 0 0 0 -9.324-9.324h-157.352a9.324 9.324 0 0 0 -1.532 18.522l80.208 13.368 80.209-13.369a9.294 9.294 0 0 0 7.791-9.197z"/><path d="m165.739 63.833q-.474 5.439-.893 10.921l83.154 19.19v-15.167l-74.839-12.472a25.446 25.446 0 0 1 -7.422-2.472z"/></g></svg>